<svg width="198" height="50" viewBox="0 0 198 50" fill="none" xmlns="http://www.w3.org/2000/svg">
<path d="M18.5491 50C18.5491 47.7377 18.5505 45.6378 18.5464 43.5393C18.5464 43.3287 18.662 43.1994 18.7927 43.0686C22.3636 39.4661 25.9346 35.8621 29.5041 32.2581C29.8289 31.932 30.1688 31.6169 30.466 31.2646C30.9738 30.6591 30.9875 30.0096 30.4784 29.4055C30.1 28.9555 29.6486 28.5675 29.2468 28.1368C29.0817 27.9606 28.9729 28.0129 28.8436 28.156C28.7555 28.251 28.6606 28.3377 28.5698 28.4299C25.4268 31.5728 22.2824 34.7172 19.1353 37.8574C18.984 38.0088 18.867 38.2083 18.6372 38.2716C18.4872 38.1312 18.5519 37.9551 18.5505 37.7982C18.5464 35.9171 18.556 34.0346 18.5395 32.1535C18.5354 31.8081 18.6496 31.5715 18.889 31.332C21.004 29.2211 23.0998 27.0923 25.2231 24.9869C25.5671 24.6443 25.5658 24.4488 25.219 24.1076C23.1026 22.0242 21.0151 19.9119 18.9055 17.8216C18.6496 17.5684 18.5354 17.3166 18.5395 16.9519C18.5587 15.3474 18.5464 13.7429 18.5505 12.1384C18.5519 11.9788 18.4996 11.8081 18.6234 11.6348C18.8491 11.6926 18.9674 11.8893 19.1133 12.0352C22.1421 15.0585 25.1736 18.0803 28.1872 21.1187C28.5023 21.4366 28.6826 21.4944 29.0005 21.1325C29.4243 20.6495 29.9266 20.2339 30.3697 19.7633C30.9848 19.1083 31.0068 18.5 30.4646 17.7803C30.0862 17.2767 29.5991 16.8735 29.156 16.4318C25.7378 13.015 22.3223 9.5954 18.8959 6.18684C18.6372 5.92952 18.5367 5.67081 18.5395 5.31303C18.5546 3.5654 18.5464 1.8164 18.5464 0.0729049C18.7762 0.00822895 18.8422 0.177487 18.9344 0.269685C23.8938 5.22359 28.8518 10.1775 33.8058 15.1355C34.6121 15.9433 35.4694 16.7221 35.7598 17.8932C36.1712 19.5569 35.8258 21.0403 34.6479 22.2967C33.9035 23.0907 33.137 23.864 32.3609 24.625C32.1035 24.8768 32.0939 25.0309 32.3581 25.2869C33.0984 26.008 33.8085 26.7565 34.5323 27.4927C36.3474 29.3395 36.4217 31.8811 34.6988 33.8048C32.2852 36.5006 29.6211 38.9486 27.0808 41.5178C24.4209 44.2067 21.7292 46.8625 19.05 49.5321C18.9262 49.6587 18.7899 49.777 18.5491 50Z" fill="#727373"/>
<path d="M17.2487 11.6472C17.3588 11.8068 17.3078 11.9761 17.3078 12.1329C17.312 13.7567 17.2996 15.3791 17.3188 17.0029C17.323 17.3703 17.2033 17.618 16.9501 17.8698C14.835 19.9807 12.7379 22.1109 10.6159 24.2149C10.3008 24.5287 10.316 24.6966 10.6201 24.9993C12.7392 27.1075 14.8364 29.2363 16.9514 31.3472C17.2046 31.599 17.3188 31.8508 17.3175 32.2141C17.301 34.2397 17.3092 36.2639 17.3092 38.3102C17.0478 38.2648 16.9501 38.0707 16.8152 37.9345C13.6667 34.7695 10.5155 31.6073 7.3849 28.4258C7.02849 28.0625 6.82346 28.0528 6.47118 28.412C6.12165 28.767 5.76525 29.1166 5.45425 29.5032C4.90107 30.1913 4.91621 30.772 5.50379 31.4353C5.91937 31.9031 6.35834 32.3517 6.80144 32.7962C10.1715 36.1841 13.5415 39.5707 16.9225 42.9462C17.2088 43.231 17.323 43.5131 17.3188 43.9136C17.2982 45.8855 17.3092 47.8574 17.3092 49.8349C17.0767 49.8707 17.0065 49.6863 16.9005 49.583C12.0828 44.7723 7.26793 39.9615 2.45852 35.1424C1.95212 34.6333 1.47187 34.0966 1.00538 33.5489C-0.323921 31.9843 -0.292271 29.517 1.00813 27.9304C1.79525 26.9712 2.67457 26.1084 3.55251 25.2401C3.76855 25.0268 3.79195 24.903 3.56352 24.6746C2.83557 23.9425 2.13927 23.1801 1.42233 22.437C-0.41199 20.5408 -0.479418 17.9854 1.2627 16.0121C1.53104 15.708 1.81176 15.4149 2.09799 15.1287C6.98859 10.2353 11.8819 5.34471 16.7712 0.451355C16.9115 0.309619 17.0257 0.140361 17.1386 0C17.3725 0.137608 17.3037 0.282097 17.3037 0.396312C17.3092 2.09302 17.2996 3.79111 17.3133 5.48782C17.3161 5.78918 17.2225 6.00248 17.0106 6.21439C13.3805 9.86239 9.7614 13.5214 6.12991 17.1694C4.70704 18.5964 4.69328 19.1083 6.12303 20.5367C7.18262 21.5963 7.18262 21.5976 8.24633 20.5339C11.0769 17.7047 13.9075 14.8727 16.7423 12.0462C16.895 11.9004 17.0065 11.6912 17.2487 11.6472Z" fill="#727373"/>
<path d="M15.08 24.9993C15.0841 23.2902 16.456 21.9196 18.1569 21.9238C19.8178 21.9279 21.1705 23.3095 21.176 25.009C21.1815 26.7318 19.8178 28.1134 18.1225 28.1065C16.4079 28.0983 15.0772 26.7387 15.08 24.9993Z" fill="#FF7224"/>
<path d="M41.2682 33.154V16.575H52.6333V19.3794H44.6149V23.304H51.5366V26.1085H44.6149V33.154H41.2682Z" fill="#FF7224"/>
<path d="M53.9805 16.575H57.1578V19.5156H53.9805V16.575ZM53.9805 21.1435H57.1578V33.154H53.9805V21.1435Z" fill="#FF7224"/>
<path d="M61.6053 33.154H58.4266V21.1435H61.3796V22.8512C61.8847 22.0449 62.3388 21.5137 62.742 21.2564C63.1452 21.0004 63.6034 20.8724 64.1167 20.8724C64.8391 20.8724 65.5368 21.072 66.2083 21.4724L65.2244 24.2425C64.6891 23.8957 64.191 23.7223 63.7314 23.7223C63.2869 23.7223 62.9085 23.8448 62.6002 24.0897C62.292 24.3347 62.0484 24.7778 61.8709 25.419C61.6948 26.0603 61.6053 27.402 61.6053 29.4441V33.154V33.154Z" fill="#FF7224"/>
<path d="M65.9923 29.7276L69.1807 29.2418C69.3169 29.8597 69.5921 30.3289 70.0077 30.6495C70.4219 30.9702 71.0026 31.1298 71.7485 31.1298C72.5714 31.1298 73.1879 30.9784 73.6034 30.6771C73.8828 30.4665 74.0218 30.1831 74.0218 29.8294C74.0218 29.5886 73.9475 29.3891 73.7961 29.2294C73.6378 29.0794 73.2828 28.9404 72.7337 28.8111C70.1701 28.2455 68.5449 27.7295 67.8597 27.2616C66.9088 26.6135 66.434 25.7122 66.434 24.559C66.434 23.5187 66.8455 22.6435 67.667 21.9348C68.4885 21.2261 69.7628 20.8711 71.4898 20.8711C73.1328 20.8711 74.3534 21.1394 75.1543 21.6747C75.9524 22.21 76.5042 23.0013 76.8056 24.0498L73.8085 24.6044C73.6805 24.1365 73.4369 23.7788 73.0791 23.5297C72.7214 23.2806 72.2108 23.1568 71.5476 23.1568C70.7109 23.1568 70.1109 23.2737 69.749 23.5077C69.5082 23.6742 69.3871 23.8875 69.3871 24.1517C69.3871 24.3774 69.4931 24.57 69.7036 24.7283C69.9898 24.9388 70.9792 25.2374 72.6718 25.6227C74.3644 26.0066 75.5451 26.4786 76.2166 27.0359C76.8799 27.6015 77.2129 28.39 77.2129 29.4001C77.2129 30.5009 76.7533 31.4477 75.8327 32.2389C74.9135 33.0302 73.5525 33.4265 71.7498 33.4265C70.1151 33.4265 68.8188 33.0948 67.8652 32.4316C66.9115 31.7669 66.2868 30.8656 65.9923 29.7276Z" fill="#FF7224"/>
<path d="M84.5749 21.1435V23.6769H82.4034V28.5179C82.4034 29.4977 82.4241 30.0688 82.4653 30.2311C82.5066 30.3935 82.6016 30.527 82.7488 30.633C82.8961 30.7389 83.0749 30.7912 83.2855 30.7912C83.5786 30.7912 84.0052 30.6894 84.5625 30.4857L84.8349 32.9517C84.096 33.2682 83.2593 33.4264 82.3236 33.4264C81.7511 33.4264 81.2351 33.3301 80.7741 33.1374C80.3145 32.9448 79.976 32.6971 79.7613 32.3916C79.5467 32.0861 79.3967 31.6733 79.3155 31.1531C79.2467 30.7843 79.2137 30.0385 79.2137 28.9142V23.6782H77.755V21.1449H79.2137V18.7574L82.402 16.9024V21.1435H84.5749V21.1435Z" fill="#FF7224"/>
<path d="M106.427 33.154H102.786L101.338 29.3877H94.7112L93.3434 33.154H89.7917L96.2483 16.575H99.7876L106.427 33.154ZM100.264 26.5956L97.9794 20.4431L95.7405 26.5956H100.264V26.5956Z" fill="#FF7224"/>
<path d="M106.134 29.7276L109.322 29.2418C109.459 29.8597 109.732 30.3289 110.148 30.6495C110.562 30.9702 111.143 31.1298 111.889 31.1298C112.712 31.1298 113.33 30.9784 113.744 30.6771C114.023 30.4665 114.161 30.1831 114.161 29.8294C114.161 29.5886 114.086 29.3891 113.935 29.2294C113.777 29.0794 113.422 28.9404 112.873 28.8111C110.309 28.2455 108.684 27.7295 107.999 27.2616C107.049 26.6135 106.573 25.7122 106.573 24.559C106.573 23.5187 106.984 22.6435 107.807 21.9348C108.629 21.2261 109.903 20.8711 111.63 20.8711C113.273 20.8711 114.494 21.1394 115.295 21.6747C116.093 22.21 116.645 23.0013 116.946 24.0498L113.949 24.6044C113.819 24.1365 113.577 23.7788 113.219 23.5297C112.862 23.2806 112.351 23.1568 111.688 23.1568C110.851 23.1568 110.251 23.2737 109.889 23.5077C109.649 23.6742 109.529 23.8875 109.529 24.1517C109.529 24.3774 109.635 24.57 109.845 24.7283C110.132 24.9388 111.121 25.2374 112.814 25.6227C114.506 26.0066 115.687 26.4786 116.358 27.0359C117.022 27.6015 117.355 28.39 117.355 29.4001C117.355 30.5009 116.895 31.4477 115.974 32.2389C115.055 33.0302 113.694 33.4265 111.892 33.4265C110.257 33.4265 108.961 33.0948 108.007 32.4316C107.052 31.7669 106.429 30.8656 106.134 29.7276Z" fill="#FF7224"/>
<path d="M118.089 29.7276L121.278 29.2418C121.414 29.8597 121.689 30.3289 122.105 30.6495C122.519 30.9702 123.1 31.1298 123.846 31.1298C124.669 31.1298 125.285 30.9784 125.701 30.6771C125.98 30.4665 126.118 30.1831 126.118 29.8294C126.118 29.5886 126.043 29.3891 125.892 29.2294C125.734 29.0794 125.379 28.9404 124.83 28.8111C122.266 28.2455 120.642 27.7295 119.955 27.2616C119.006 26.6135 118.53 25.7122 118.53 24.559C118.53 23.5187 118.941 22.6435 119.764 21.9348C120.586 21.2261 121.859 20.8711 123.587 20.8711C125.23 20.8711 126.451 21.1394 127.251 21.6747C128.05 22.21 128.601 23.0013 128.903 24.0498L125.906 24.6044C125.778 24.1365 125.534 23.7788 125.176 23.5297C124.819 23.2806 124.308 23.1568 123.645 23.1568C122.808 23.1568 122.208 23.2737 121.846 23.5077C121.605 23.6742 121.486 23.8875 121.486 24.1517C121.486 24.3774 121.592 24.57 121.802 24.7283C122.087 24.9388 123.078 25.2374 124.77 25.6227C126.463 26.0066 127.644 26.4786 128.315 27.0359C128.978 27.6015 129.311 28.39 129.311 29.4001C129.311 30.5009 128.852 31.4477 127.931 32.2389C127.012 33.0302 125.651 33.4265 123.848 33.4265C122.214 33.4265 120.917 33.0948 119.964 32.4316C119.007 31.7669 118.383 30.8656 118.089 29.7276Z" fill="#FF7224"/>
<path d="M138.143 33.154V31.3554C137.705 31.9967 137.13 32.5017 136.419 32.8705C135.706 33.2393 134.953 33.4237 134.163 33.4237C133.356 33.4237 132.632 33.2462 131.991 32.8925C131.351 32.5375 130.887 32.0407 130.599 31.3995C130.312 30.7582 130.17 29.8734 130.17 28.7423V21.1422H133.347V26.6616C133.347 28.3501 133.405 29.3849 133.524 29.7661C133.641 30.1459 133.852 30.4486 134.162 30.6702C134.47 30.8931 134.864 31.0045 135.339 31.0045C135.881 31.0045 136.367 30.8559 136.797 30.5573C137.227 30.2601 137.521 29.8899 137.679 29.4496C137.838 29.0078 137.917 27.929 137.917 26.2089V21.1422H141.095V33.1526H138.143V33.154Z" fill="#FF7224"/>
<path d="M145.574 33.154H142.395V21.1435H145.348V22.8512C145.853 22.0449 146.307 21.5137 146.711 21.2564C147.114 21.0004 147.572 20.8724 148.085 20.8724C148.808 20.8724 149.505 21.072 150.177 21.4724L149.193 24.2425C148.658 23.8957 148.16 23.7223 147.7 23.7223C147.254 23.7223 146.877 23.8448 146.569 24.0897C146.261 24.3347 146.017 24.7778 145.84 25.419C145.662 26.0603 145.574 27.402 145.574 29.4441V33.154V33.154Z" fill="#FF7224"/>
<path d="M152.992 24.808L150.108 24.2879C150.433 23.1265 150.99 22.2678 151.783 21.7091C152.574 21.1504 153.751 20.8724 155.311 20.8724C156.729 20.8724 157.784 21.0403 158.478 21.3761C159.171 21.7118 159.66 22.1384 159.943 22.6545C160.225 23.1705 160.367 24.1186 160.367 25.4988L160.334 29.2074C160.334 30.2628 160.385 31.0417 160.487 31.5426C160.587 32.0435 160.778 32.5815 161.056 33.154H157.912C157.829 32.9434 157.728 32.6311 157.606 32.2155C157.554 32.027 157.517 31.9031 157.494 31.8426C156.951 32.3696 156.371 32.7659 155.751 33.0301C155.134 33.2943 154.473 33.4251 153.771 33.4251C152.536 33.4251 151.561 33.0907 150.848 32.4192C150.136 31.7476 149.779 30.9 149.779 29.8748C149.779 29.1964 149.943 28.5909 150.265 28.0597C150.59 27.5286 151.044 27.1212 151.629 26.8391C152.212 26.5557 153.056 26.3093 154.155 26.0974C155.641 25.8181 156.671 25.5594 157.243 25.3172V25.0007C157.243 24.3897 157.093 23.9535 156.79 23.6948C156.489 23.4347 155.919 23.304 155.083 23.304C154.517 23.304 154.075 23.4154 153.76 23.637C153.447 23.8599 153.189 24.2507 152.992 24.808ZM157.245 27.3868C156.837 27.523 156.192 27.6854 155.311 27.8726C154.429 28.0611 153.851 28.2469 153.581 28.4271C153.166 28.7202 152.959 29.0945 152.959 29.5459C152.959 29.9904 153.125 30.3757 153.456 30.6991C153.788 31.0224 154.21 31.1848 154.724 31.1848C155.296 31.1848 155.844 30.9963 156.362 30.6192C156.746 30.333 157 29.9821 157.121 29.5679C157.203 29.2968 157.245 28.7808 157.245 28.0184V27.3868V27.3868Z" fill="#FF7224"/>
<path d="M173.035 33.154H169.858V27.0249C169.858 25.7286 169.79 24.8892 169.653 24.508C169.518 24.1283 169.296 23.8324 168.992 23.6205C168.687 23.4099 168.318 23.304 167.89 23.304C167.338 23.304 166.845 23.4553 166.408 23.7567C165.97 24.0581 165.672 24.4571 165.509 24.9553C165.347 25.452 165.266 26.3726 165.266 27.7143V33.154H162.088V21.1435H165.04V22.9077C166.087 21.5508 167.407 20.8724 168.999 20.8724C169.701 20.8724 170.341 20.999 170.921 21.2509C171.502 21.5041 171.941 21.8261 172.238 22.2182C172.537 22.6104 172.743 23.0549 172.86 23.553C172.977 24.0498 173.036 24.7626 173.036 25.6901V33.154H173.035Z" fill="#FF7224"/>
<path d="M185.34 24.6952L182.207 25.2607C182.101 24.6346 181.861 24.164 181.488 23.8475C181.115 23.531 180.631 23.3727 180.035 23.3727C179.244 23.3727 178.611 23.6466 178.14 24.1929C177.668 24.7392 177.433 25.6529 177.433 26.9354C177.433 28.3611 177.671 29.367 178.151 29.9546C178.63 30.5421 179.273 30.8366 180.079 30.8366C180.682 30.8366 181.176 30.666 181.56 30.322C181.944 29.9793 182.216 29.389 182.375 28.5523L185.495 29.0835C185.171 30.516 184.549 31.599 183.63 32.3297C182.709 33.0618 181.477 33.4264 179.931 33.4264C178.173 33.4264 176.774 32.8719 175.729 31.7641C174.685 30.6564 174.163 29.122 174.163 27.1611C174.163 25.1782 174.686 23.6356 175.736 22.5306C176.784 21.4256 178.201 20.8738 179.987 20.8738C181.45 20.8738 182.613 21.1889 183.477 21.8178C184.344 22.4466 184.963 23.4058 185.34 24.6952Z" fill="#FF7224"/>
<path d="M194.241 29.3326L197.407 29.8638C197.001 31.0252 196.357 31.9086 195.479 32.5155C194.6 33.1223 193.502 33.4264 192.182 33.4264C190.093 33.4264 188.548 32.7439 187.545 31.3788C186.755 30.2862 186.358 28.906 186.358 27.2396C186.358 25.2484 186.878 23.6907 187.919 22.5636C188.958 21.4366 190.275 20.8724 191.865 20.8724C193.652 20.8724 195.062 21.4628 196.096 22.6421C197.128 23.8214 197.623 25.6296 197.578 28.0638H189.616C189.638 29.0065 189.895 29.7399 190.385 30.2642C190.875 30.7871 191.486 31.05 192.218 31.05C192.714 31.05 193.133 30.9137 193.473 30.6426C193.81 30.3715 194.067 29.9353 194.241 29.3326ZM194.422 26.1208C194.399 25.2016 194.162 24.5012 193.709 24.0237C193.257 23.5448 192.706 23.3054 192.058 23.3054C191.365 23.3054 190.791 23.5586 190.339 24.0636C189.885 24.5686 189.664 25.2553 189.671 26.1222H194.422V26.1208Z" fill="#FF7224"/>
<path d="M89.7917 44.2025L90.6311 43.026C91.1444 43.5599 91.9398 44.0071 92.9429 44.0071C93.7933 44.0071 94.2075 43.6149 94.2075 43.2007C94.2075 41.9141 90.0215 42.7975 90.0215 40.0605C90.0215 38.8509 91.0687 37.8478 92.7792 37.8478C93.9351 37.8478 94.8942 38.1959 95.6139 38.862L94.7525 39.9958C94.1635 39.4509 93.3791 39.2005 92.6374 39.2005C91.9728 39.2005 91.6012 39.495 91.6012 39.9312C91.6012 41.0871 95.7777 40.3123 95.7777 43.0274C95.7777 44.3567 94.8295 45.3598 92.8659 45.3598C91.4705 45.3584 90.4687 44.8906 89.7917 44.2025Z" fill="#727373"/>
<path d="M96.8262 45.2277V37.9551H101.973V39.3188H98.3757V40.8559H101.897V42.2182H98.3757V43.8654H101.973V45.2277H96.8262Z" fill="#727373"/>
<path d="M102.836 41.5977C102.836 39.3629 104.525 37.8369 106.706 37.8369C108.31 37.8369 109.236 38.7093 109.748 39.6134L108.417 40.267C108.111 39.678 107.458 39.2102 106.705 39.2102C105.385 39.2102 104.426 40.2244 104.426 41.5977C104.426 42.971 105.385 43.9852 106.705 43.9852C107.458 43.9852 108.111 43.527 108.417 42.927L109.748 43.5696C109.225 44.4751 108.308 45.3571 106.706 45.3571C104.527 45.3585 102.836 43.8324 102.836 41.5977Z" fill="#727373"/>
<path d="M110.678 42.327V37.9551H112.248V42.2733C112.248 43.2875 112.837 43.9851 113.96 43.9851C115.083 43.9851 115.661 43.2875 115.661 42.2733V37.9551H117.242V42.3159C117.242 44.1255 116.174 45.3585 113.96 45.3585C111.747 45.3585 110.678 44.1159 110.678 42.327Z" fill="#727373"/>
<path d="M122.783 45.2277L121.355 42.6448H120.221V45.2277H118.673V37.9551H122.075C123.59 37.9551 124.517 38.9473 124.517 40.3C124.517 41.5866 123.711 42.2733 122.925 42.4591L124.56 45.2277H122.783ZM122.936 40.3C122.936 39.689 122.467 39.3188 121.846 39.3188H120.222V41.2811H121.846C122.467 41.2811 122.936 40.911 122.936 40.3Z" fill="#727373"/>
<path d="M127.234 37.9551H125.685V45.2277H127.234V37.9551Z" fill="#727373"/>
<path d="M130.353 45.2277V39.3188H128.227V37.9551H134.027V39.3188H131.912V45.2277H130.353Z" fill="#727373"/>
<path d="M137.049 45.2277V42.2513L134.247 37.9551H136.013L137.822 40.8779L139.611 37.9551H141.377L138.597 42.2513V45.2277H137.049Z" fill="#727373"/>
<path d="M149.318 45.2278C149.166 45.086 148.98 44.9002 148.773 44.6828C148.228 45.097 147.564 45.3585 146.789 45.3585C145.458 45.3585 144.391 44.6608 144.391 43.2544C144.391 42.1536 145.121 41.5756 145.95 41.1614C145.666 40.6261 145.471 40.0812 145.471 39.5913C145.471 38.6102 146.343 37.8464 147.553 37.8464C148.578 37.8464 149.461 38.4134 149.461 39.3835C149.461 40.4954 148.567 40.9646 147.674 41.3788C147.891 41.6733 148.121 41.9458 148.307 42.1646C148.513 42.426 148.721 42.6655 148.918 42.9063C149.223 42.4371 149.452 41.9251 149.582 41.4999L150.694 42.0118C150.433 42.5898 150.094 43.2118 149.68 43.7677C150.116 44.237 150.575 44.7158 151.087 45.2278H149.318ZM148.032 43.8971C147.704 43.5365 147.4 43.1884 147.225 42.971C146.986 42.6765 146.734 42.349 146.495 42.0118C146.113 42.2843 145.863 42.6228 145.863 43.1237C145.863 43.8324 146.386 44.2686 146.986 44.2686C147.355 44.2686 147.715 44.1269 148.032 43.8971ZM147.17 40.6055C147.781 40.311 148.26 39.9945 148.26 39.4606C148.26 39.0794 147.977 38.851 147.616 38.851C147.191 38.851 146.852 39.1771 146.852 39.6243C146.854 39.9188 146.984 40.256 147.17 40.6055Z" fill="#727373"/>
<path d="M154.195 44.2025L155.034 43.026C155.546 43.5599 156.343 44.0071 157.346 44.0071C158.197 44.0071 158.611 43.6149 158.611 43.2007C158.611 41.9141 154.425 42.7975 154.425 40.0605C154.425 38.8509 155.472 37.8478 157.183 37.8478C158.338 37.8478 159.298 38.1959 160.017 38.862L159.156 39.9958C158.567 39.4509 157.783 39.2005 157.041 39.2005C156.376 39.2005 156.005 39.495 156.005 39.9312C156.005 41.0871 160.181 40.3123 160.181 43.0274C160.181 44.3567 159.233 45.3598 157.269 45.3598C155.874 45.3584 154.871 44.8906 154.195 44.2025Z" fill="#727373"/>
<path d="M161.23 45.2277V37.9551H166.375V39.3188H162.778V40.8559H166.299V42.2182H162.778V43.8654H166.375V45.2277H161.23Z" fill="#727373"/>
<path d="M171.699 45.2277L170.269 42.6448H169.135V45.2277H167.587V37.9551H170.989C172.504 37.9551 173.431 38.9473 173.431 40.3C173.431 41.5866 172.624 42.2733 171.839 42.4591L173.474 45.2277H171.699ZM171.85 40.3C171.85 39.689 171.382 39.3188 170.76 39.3188H169.137V41.2811H170.76C171.382 41.2811 171.85 40.911 171.85 40.3Z" fill="#727373"/>
<path d="M176.53 45.2277L173.718 37.9551H175.485L177.501 43.5489L179.507 37.9551H181.274L178.471 45.2277H176.53Z" fill="#727373"/>
<path d="M183.5 37.9551H181.952V45.2277H183.5V37.9551Z" fill="#727373"/>
<path d="M184.591 41.5977C184.591 39.3629 186.281 37.8369 188.462 37.8369C190.065 37.8369 190.992 38.7093 191.505 39.6134L190.174 40.267C189.869 39.678 189.215 39.2102 188.462 39.2102C187.143 39.2102 186.184 40.2244 186.184 41.5977C186.184 42.971 187.143 43.9852 188.462 43.9852C189.215 43.9852 189.869 43.527 190.174 42.927L191.505 43.5696C190.982 44.4751 190.065 45.3571 188.462 45.3571C186.281 45.3585 184.591 43.8324 184.591 41.5977Z" fill="#727373"/>
<path d="M192.434 45.2277V37.9551H197.579V39.3188H193.982V40.8559H197.503V42.2182H193.982V43.8654H197.579V45.2277H192.434Z" fill="#727373"/>
</svg>
